<?xml version="1.0" encoding="UTF-8" standalone="no"?>
<svg
   height="128px"
   viewBox="0 0 128 128"
   width="128px"
   version="1.1"
   id="svg9"
   sodipodi:docname="folder-documents.svg"
   inkscape:version="1.3.2 (091e20ef0f, 2023-11-25)"
   xmlns:inkscape="http://www.inkscape.org/namespaces/inkscape"
   xmlns:sodipodi="http://sodipodi.sourceforge.net/DTD/sodipodi-0.dtd"
   xmlns="http://www.w3.org/2000/svg"
   xmlns:svg="http://www.w3.org/2000/svg">
  <defs
     id="defs9">
    <linearGradient
       id="a-3"
       gradientTransform="matrix(0.45451,0,0,0.455522,-1210.2921,616.17261)"
       gradientUnits="userSpaceOnUse"
       x1="2689.252"
       x2="2918.0698"
       y1="-1106.803"
       y2="-1106.803">
      <stop
         offset="0"
         stop-color="#62a0ea"
         id="stop1-6"
         style="stop-color:#f17f7d;stop-opacity:1;" />
      <stop
         offset="0.0576991"
         stop-color="#afd4ff"
         id="stop2-7"
         style="stop-color:#f17f7d;stop-opacity:1;" />
      <stop
         offset="0.122204"
         stop-color="#62a0ea"
         id="stop3-5"
         style="stop-color:#cd5959;stop-opacity:1;" />
      <stop
         offset="0.87330598"
         stop-color="#62a0ea"
         id="stop4-3"
         style="stop-color:#cd5959;stop-opacity:1;" />
      <stop
         offset="0.95599699"
         stop-color="#c0d5ea"
         id="stop5-5"
         style="stop-color:#f17f7d;stop-opacity:1;" />
      <stop
         offset="1"
         stop-color="#62a0ea"
         id="stop6-6"
         style="stop-color:#f17f7d;stop-opacity:1;" />
    </linearGradient>
  </defs>
  <sodipodi:namedview
     id="namedview9"
     pagecolor="#ffffff"
     bordercolor="#000000"
     borderopacity="0.25"
     inkscape:showpageshadow="2"
     inkscape:pageopacity="0.0"
     inkscape:pagecheckerboard="0"
     inkscape:deskcolor="#d1d1d1"
     showgrid="true"
     inkscape:zoom="6.234375"
     inkscape:cx="63.919799"
     inkscape:cy="76.83208"
     inkscape:window-width="1847"
     inkscape:window-height="1011"
     inkscape:window-x="20"
     inkscape:window-y="20"
     inkscape:window-maximized="0"
     inkscape:current-layer="svg9">
    <inkscape:grid
       id="grid9"
       units="px"
       originx="0"
       originy="0"
       spacingx="1"
       spacingy="1"
       empcolor="#0099e5"
       empopacity="0.30196078"
       color="#0099e5"
       opacity="0.14901961"
       empspacing="5"
       dotted="false"
       gridanglex="30"
       gridanglez="30"
       visible="true" />
  </sodipodi:namedview>
  <linearGradient
     id="a"
     gradientTransform="matrix(0.45451 0 0 0.455522 -1210.292114 616.172607)"
     gradientUnits="userSpaceOnUse"
     x1="2689.251953"
     x2="2918.069824"
     y1="-1106.802979"
     y2="-1106.802979">
    <stop
       offset="0"
       stop-color="#62a0ea"
       id="stop1" />
    <stop
       offset="0.0576991"
       stop-color="#afd4ff"
       id="stop2" />
    <stop
       offset="0.122204"
       stop-color="#62a0ea"
       id="stop3" />
    <stop
       offset="0.873306"
       stop-color="#62a0ea"
       id="stop4" />
    <stop
       offset="0.955997"
       stop-color="#c0d5ea"
       id="stop5" />
    <stop
       offset="1"
       stop-color="#62a0ea"
       id="stop6" />
  </linearGradient>
  <path
     d="m 21.976562 12 c -5.527343 0 -9.976562 4.460938 -9.976562 10 v 86.03125 c 0 5.542969 4.449219 10 9.976562 10 h 84.042969 c 5.53125 0 9.980469 -4.457031 9.980469 -10 v -72.085938 c 0 -6.628906 -5.359375 -12 -11.972656 -12 h -46.027344 c -2.453125 0 -4.695312 -1.386718 -5.796875 -3.582031 l -1.503906 -2.992187 c -1.65625 -3.292969 -5.019531 -5.371094 -8.699219 -5.371094 z m 0 0"
     fill="#438de6"
     id="path6"
     style="fill:#a14040;fill-opacity:1" />
  <path
     d="m 65.976558,35.999998 c -2.746093,0 -5.226562,1.101562 -7.027343,2.890625 -2.273438,2.253906 -5.382813,5.109375 -8.632813,5.109375 H 21.976558 c -5.527343,0 -9.976562,4.460938 -9.976562,10 v 54.031252 c 0,5.54297 4.449219,10 9.976562,10 h 84.042972 c 5.53125,0 9.98047,-4.45703 9.98047,-10 V 45.999998 c 0,-5.539062 -4.44922,-10 -9.98047,-10 z m 0,0"
     fill="url(#a)"
     id="path7-2"
     style="fill:url(#a-3)" />
  <path
     d="m 65.976562 32 c -2.746093 0 -5.226562 1.101562 -7.027343 2.890625 c -2.273438 2.253906 -5.382813 5.109375 -8.632813 5.109375 h -28.339844 c -5.527343 0 -9.976562 4.460938 -9.976562 10 v 55.976562 c 0 5.539063 4.449219 10 9.976562 10 h 84.042969 c 5.53125 0 9.980469 -4.460937 9.980469 -10 v -63.976562 c 0 -5.539062 -4.449219 -10 -9.980469 -10 z m 0 0"
     fill="#a4caee"
     id="path8"
     style="fill:#f17f7d;fill-opacity:1" />
  <path
     d="m 58 60 c -3.289062 0 -6 2.710938 -6 6 v 20 c 0 3.289062 2.710938 6 6 6 h 12 c 3.289062 0 6 -2.710938 6 -6 v -17 c 0 -0.53125 -0.210938 -1.039062 -0.585938 -1.414062 l -7 -7 c -0.375 -0.375 -0.882812 -0.585938 -1.414062 -0.585938 z m 0 4 h 8 v 3 c 0 2 1 3 3 3 h 3 v 16 c 0 1.140625 -0.859375 2 -2 2 h -12 c -1.140625 0 -2 -0.859375 -2 -2 v -20 c 0 -1.140625 0.859375 -2 2 -2 z m 0 0"
     fill="#438de6"
     id="path9"
     style="fill:#a14040;fill-opacity:1" />
</svg>
