<?xml version="1.0" encoding="UTF-8" standalone="no"?>
<svg
   height="128px"
   viewBox="0 0 128 128"
   width="128px"
   version="1.1"
   id="svg9"
   sodipodi:docname="folder-publicshare.svg"
   inkscape:version="1.3.2 (091e20ef0f, 2023-11-25)"
   xmlns:inkscape="http://www.inkscape.org/namespaces/inkscape"
   xmlns:sodipodi="http://sodipodi.sourceforge.net/DTD/sodipodi-0.dtd"
   xmlns="http://www.w3.org/2000/svg"
   xmlns:svg="http://www.w3.org/2000/svg">
  <defs
     id="defs9">
    <linearGradient
       id="a-3"
       gradientTransform="matrix(0.45451,0,0,0.455522,-1210.2921,616.17261)"
       gradientUnits="userSpaceOnUse"
       x1="2689.252"
       x2="2918.0698"
       y1="-1106.803"
       y2="-1106.803">
      <stop
         offset="0"
         stop-color="#62a0ea"
         id="stop1-6"
         style="stop-color:#f17f7d;stop-opacity:1;" />
      <stop
         offset="0.0576991"
         stop-color="#afd4ff"
         id="stop2-7"
         style="stop-color:#f17f7d;stop-opacity:1;" />
      <stop
         offset="0.122204"
         stop-color="#62a0ea"
         id="stop3-5"
         style="stop-color:#cd5959;stop-opacity:1;" />
      <stop
         offset="0.87330598"
         stop-color="#62a0ea"
         id="stop4-3"
         style="stop-color:#cd5959;stop-opacity:1;" />
      <stop
         offset="0.95599699"
         stop-color="#c0d5ea"
         id="stop5-5"
         style="stop-color:#f17f7d;stop-opacity:1;" />
      <stop
         offset="1"
         stop-color="#62a0ea"
         id="stop6-6"
         style="stop-color:#f17f7d;stop-opacity:1;" />
    </linearGradient>
  </defs>
  <sodipodi:namedview
     id="namedview9"
     pagecolor="#ffffff"
     bordercolor="#000000"
     borderopacity="0.25"
     inkscape:showpageshadow="2"
     inkscape:pageopacity="0.0"
     inkscape:pagecheckerboard="0"
     inkscape:deskcolor="#d1d1d1"
     inkscape:zoom="6.234375"
     inkscape:cx="64"
     inkscape:cy="64"
     inkscape:window-width="1920"
     inkscape:window-height="1011"
     inkscape:window-x="0"
     inkscape:window-y="0"
     inkscape:window-maximized="1"
     inkscape:current-layer="svg9" />
  <linearGradient
     id="a"
     gradientTransform="matrix(0.45451 0 0 0.455522 -1210.292114 616.172607)"
     gradientUnits="userSpaceOnUse"
     x1="2689.251953"
     x2="2918.069824"
     y1="-1106.802979"
     y2="-1106.802979">
    <stop
       offset="0"
       stop-color="#62a0ea"
       id="stop1" />
    <stop
       offset="0.0576991"
       stop-color="#afd4ff"
       id="stop2" />
    <stop
       offset="0.122204"
       stop-color="#62a0ea"
       id="stop3" />
    <stop
       offset="0.873306"
       stop-color="#62a0ea"
       id="stop4" />
    <stop
       offset="0.955997"
       stop-color="#c0d5ea"
       id="stop5" />
    <stop
       offset="1"
       stop-color="#62a0ea"
       id="stop6" />
  </linearGradient>
  <path
     d="m 21.976562 12 c -5.527343 0 -9.976562 4.460938 -9.976562 10 v 86.03125 c 0 5.542969 4.449219 10 9.976562 10 h 84.042969 c 5.53125 0 9.980469 -4.457031 9.980469 -10 v -72.085938 c 0 -6.628906 -5.359375 -12 -11.972656 -12 h -46.027344 c -2.453125 0 -4.695312 -1.386718 -5.796875 -3.582031 l -1.503906 -2.992187 c -1.65625 -3.292969 -5.019531 -5.371094 -8.699219 -5.371094 z m 0 0"
     fill="#438de6"
     id="path6"
     style="fill:#a14040;fill-opacity:1" />
  <path
     d="M 65.976562,36 C 63.230469,36 60.75,37.101562 58.949219,38.890625 56.675781,41.144531 53.566406,44 50.316406,44 H 21.976562 C 16.449219,44 12,48.460938 12,54 v 54.03125 c 0,5.54297 4.449219,10 9.976562,10 h 84.042968 c 5.53125,0 9.98047,-4.45703 9.98047,-10 V 46 c 0,-5.539062 -4.44922,-10 -9.98047,-10 z m 0,0"
     fill="url(#a)"
     id="path7-2"
     style="fill:url(#a-3)" />
  <path
     d="m 65.976562 32 c -2.746093 0 -5.226562 1.101562 -7.027343 2.890625 c -2.273438 2.253906 -5.382813 5.109375 -8.632813 5.109375 h -28.339844 c -5.527343 0 -9.976562 4.460938 -9.976562 10 v 55.976562 c 0 5.539063 4.449219 10 9.976562 10 h 84.042969 c 5.53125 0 9.980469 -4.460937 9.980469 -10 v -63.976562 c 0 -5.539062 -4.449219 -10 -9.980469 -10 z m 0 0"
     fill="#a4caee"
     id="path8"
     style="fill:#f17f7d;fill-opacity:1" />
  <path
     d="m 74 60 c -3.3125 0 -6 2.679688 -6 6 c 0 0.242188 0.023438 0.492188 0.054688 0.734375 l -9.890626 4.945313 c -1.117187 -1.078126 -2.609374 -1.679688 -4.164062 -1.679688 c -3.3125 0 -6 2.679688 -6 6 c 0 3.3125 2.6875 6 6 6 c 1.546875 -0.007812 3.039062 -0.617188 4.148438 -1.6875 l 9.90625 4.945312 c -0.03125 0.242188 -0.054688 0.492188 -0.054688 0.742188 c 0 3.3125 2.6875 6 6 6 s 6 -2.6875 6 -6 c 0 -3.320312 -2.6875 -6 -6 -6 c -1.546875 0 -3.039062 0.609375 -4.148438 1.6875 l -9.90625 -4.953125 c 0.03125 -0.242187 0.054688 -0.492187 0.054688 -0.734375 c 0 -0.25 -0.015625 -0.5 -0.046875 -0.742188 l 9.890625 -4.945312 c 1.117188 1.070312 2.609375 1.679688 4.15625 1.6875 c 3.3125 0 6 -2.6875 6 -6 c 0 -3.320312 -2.6875 -6 -6 -6 z m 0 0"
     fill="#438de6"
     id="path9"
     style="fill:#a14040;fill-opacity:1" />
</svg>
