<?xml version="1.0" encoding="UTF-8" standalone="no"?>
<svg
   height="128px"
   viewBox="0 0 128 128"
   width="128px"
   version="1.1"
   id="svg12"
   sodipodi:docname="package-x-tar.svg"
   inkscape:version="1.3.2 (091e20ef0f, 2023-11-25)"
   xmlns:inkscape="http://www.inkscape.org/namespaces/inkscape"
   xmlns:sodipodi="http://sodipodi.sourceforge.net/DTD/sodipodi-0.dtd"
   xmlns="http://www.w3.org/2000/svg"
   xmlns:svg="http://www.w3.org/2000/svg">
  <defs
     id="defs12">
    <rect
       x="20"
       y="19.135338"
       width="52"
       height="30.809974"
       id="rect12" />
  </defs>
  <sodipodi:namedview
     id="namedview12"
     pagecolor="#ffffff"
     bordercolor="#000000"
     borderopacity="0.25"
     inkscape:showpageshadow="2"
     inkscape:pageopacity="0.0"
     inkscape:pagecheckerboard="0"
     inkscape:deskcolor="#d1d1d1"
     inkscape:zoom="6.234375"
     inkscape:cx="63.919799"
     inkscape:cy="64"
     inkscape:window-width="1920"
     inkscape:window-height="1011"
     inkscape:window-x="0"
     inkscape:window-y="0"
     inkscape:window-maximized="1"
     inkscape:current-layer="svg12" />
  <filter
     id="a"
     height="1"
     width="1"
     x="0"
     y="0">
    <feColorMatrix
       in="SourceGraphic"
       type="matrix"
       values="0 0 0 0 1 0 0 0 0 1 0 0 0 0 1 0 0 0 1 0"
       id="feColorMatrix1" />
  </filter>
  <mask
     id="b">
    <g
       filter="url(#a)"
       id="g1">
      <rect
         fill-opacity="0.1"
         height="128"
         width="128"
         id="rect1" />
    </g>
  </mask>
  <clipPath
     id="c">
    <rect
       height="152"
       width="192"
       id="rect2" />
  </clipPath>
  <path
     d="m 28 8 h 50 l 30.042969 29.917969 v 74.058593 c 0 4.433594 -3.609375 8.023438 -8.042969 8.023438 h -72 c -4.433594 0 -8 -3.566406 -8 -8 v -96 c 0 -4.433594 3.566406 -8 8 -8 z m 0 0"
     fill="#ded4ca"
     id="path2" />
  <path
     d="m 78 8 v 22 c 0 4.433594 3.609375 7.921875 8.042969 7.921875 l 22 -0.003906 z m 0 0"
     fill="#c9b8a7"
     id="path3" />
  <path
     d="m 60 60 v 4 h 4 v -2 h 4 v -2 z m 4 4 v 2 h -4 v 4 h 4 v -2 h 4 v -4 z m 0 6 v 2 h -4 v 4 h 4 v -2 h 4 v -4 z m 0 6 v 2 h -4 v 4 h 4 v -2 h 4 v -4 z m 0 6 v 2 h -4 v 4 h 4 v -2 h 4 v -4 z m 0 6 v 2 h -4 v 4 h 4 v -2 h 4 v -4 z m 0 6 v 2 h -4 v 4 h 4 v -2 h 4 v -4 z m 0 6 v 2 h -4 v 4 h 4 v -2 h 4 v -4 z m 0 6 v 2 h -4 v 4 h 4 v -2 h 4 v -4 z m 0 6 v 2 h -4 v 4 h 4 v -2 h 4 v -4 z m 0 0"
     fill="#ffffff"
     id="path4" />
  <g
     clip-path="url(#c)"
     mask="url(#b)"
     transform="matrix(1 0 0 1 -8 -16)"
     id="g5">
    <path
       d="m 68 67 c -2.214844 0 -4 1.785156 -4 4 v 10 c 0 2.214844 1.785156 4 4 4 v 8 c 0 1.109375 0.890625 2 2 2 h 4 c 1.109375 0 2 -0.890625 2 -2 v -8 c 2.214844 0 4 -1.785156 4 -4 v -10 c 0 -2.214844 -1.785156 -4 -4 -4 z m 2 22 h 4 v 4 h -4 z m 0 0"
       id="path5" />
  </g>
  <path
     d="m 60 62 v 4 h 4 v -2 h 4 v -2 z m 4 4 v 2 h -4 v 4 h 4 v -2 h 4 v -4 z m 0 6 v 2 h -4 v 4 h 4 v -2 h 4 v -4 z m 0 6 v 2 h -4 v 4 h 4 v -2 h 4 v -4 z m 0 6 v 2 h -4 v 4 h 4 v -2 h 4 v -4 z m 0 6 v 2 h -4 v 4 h 4 v -2 h 4 v -4 z m 0 6 v 2 h -4 v 4 h 4 v -2 h 4 v -4 z m 0 6 v 2 h -4 v 4 h 4 v -2 h 4 v -4 z m 0 6 v 2 h -4 v 4 h 4 v -2 h 4 v -4 z m 0 6 v 2 h -4 v 4 h 4 v -2 h 4 v -4 z m 0 0"
     fill="#c0bfbc"
     id="path6" />
  <path
     d="m 62 57 c -1.109375 0 -2 0.890625 -2 2 v 16 c 0 1.109375 0.890625 2 2 2 h 4 c 1.109375 0 2 -0.890625 2 -2 v -16 c 0 -1.109375 -0.890625 -2 -2 -2 z m 0 14 h 4 v 4 h -4 z m 0 0"
     fill="#77767b"
     id="path7" />
  <path
     d="m 58.503906 49 h 10.992188 c 1.382812 0 2.503906 1.121094 2.503906 2.503906 v 12.992188 c 0 1.382812 -1.121094 2.503906 -2.503906 2.503906 h -10.992188 c -1.382812 0 -2.503906 -1.121094 -2.503906 -2.503906 v -12.992188 c 0 -1.382812 1.121094 -2.503906 2.503906 -2.503906 z m 0 0"
     fill="#77767b"
     id="path8" />
  <path
     d="m 58.945312 47 h 10.109376 c 1.628906 0 2.945312 1.316406 2.945312 2.945312 v 12.109376 c 0 1.628906 -1.316406 2.945312 -2.945312 2.945312 h -10.109376 c -1.628906 0 -2.945312 -1.316406 -2.945312 -2.945312 v -12.109376 c 0 -1.628906 1.316406 -2.945312 2.945312 -2.945312 z m 0 0"
     fill="#9a9996"
     id="path9" />
  <path
     d="m 62 53 c -1.109375 0 -2 0.890625 -2 2 v 18 c 0 1.109375 0.890625 2 2 2 h 4 c 1.109375 0 2 -0.890625 2 -2 v -18 c 0 -1.109375 -0.890625 -2 -2 -2 z m 0 16 h 4 v 4 h -4 z m 0 0"
     fill="#ffffff"
     id="path10" />
  <path
     d="m 64 59 c 1.105469 0 2 -0.894531 2 -2 v -6 c 0 -1.105469 -0.894531 -2 -2 -2 s -2 0.894531 -2 2 v 6 c 0 1.105469 0.894531 2 2 2 z m 0 0"
     fill="#77767b"
     id="path11" />
  <path
     d="m 64 57 c 1.105469 0 2 -0.894531 2 -2 v -4 c 0 -1.105469 -0.894531 -2 -2 -2 s -2 0.894531 -2 2 v 4 c 0 1.105469 0.894531 2 2 2 z m 0 0"
     fill="#9a9996"
     id="path12" />
  <rect
     style="fill:#6b5542;fill-opacity:1"
     id="rect13"
     width="39.383457"
     height="18.424812"
     x="28.616541"
     y="13.713659"
     rx="2"
     ry="2" />
  <path
     style="font-weight:bold;font-size:26.6667px;white-space:pre;fill:#ffffff"
     d="m 29.733346,43.398135 h -4.026672 v -15.68002 h -5.17334 V 24.35811 h 14.373352 v 3.360005 h -5.17334 z m 17.893376,0 -1.386668,-4.53334 h -6.933342 l -1.386669,4.53334 H 33.573371 L 40.293379,24.27811 h 4.93334 l 6.746675,19.120025 z M 43.893384,31.051452 Q 43.76005,30.598118 43.546717,29.904784 43.333383,29.21145 43.12005,28.491449 q -0.213334,-0.720001 -0.346667,-1.253335 -0.133334,0.533334 -0.373334,1.333335 -0.213334,0.773334 -0.426667,1.493335 -0.186667,0.693335 -0.293334,0.986668 l -1.360002,4.426673 h 4.960006 z m 16.0267,-6.693342 q 2.58667,0 4.266673,0.640001 1.680002,0.613334 2.506669,1.893336 0.826668,1.253335 0.826668,3.173337 0,1.306669 -0.506667,2.293337 -0.480001,0.960001 -1.306669,1.653335 -0.800001,0.666667 -1.733335,1.093335 l 5.600007,8.293344 h -4.480006 l -4.533339,-7.306676 h -2.160002 v 7.306676 H 54.373411 V 24.35811 Z m -0.293333,3.306671 h -1.226668 v 5.146673 h 1.306668 q 2.000002,0 2.853337,-0.666667 0.880001,-0.666668 0.880001,-1.973336 0,-0.906668 -0.426667,-1.440002 -0.400001,-0.56 -1.253335,-0.800001 -0.826668,-0.266667 -2.133336,-0.266667 z"
     id="text12"
     transform="matrix(0.69113315,0,0,0.69113315,17.170384,-0.4605827)"
     aria-label="TAR" />
</svg>
