<?xml version="1.0" encoding="UTF-8" standalone="no"?>
<svg
   height="128px"
   viewBox="0 0 128 128"
   width="128px"
   version="1.1"
   id="svg14"
   sodipodi:docname="application-javascript.svg"
   inkscape:version="1.3.2 (091e20ef0f, 2023-11-25)"
   xmlns:inkscape="http://www.inkscape.org/namespaces/inkscape"
   xmlns:sodipodi="http://sodipodi.sourceforge.net/DTD/sodipodi-0.dtd"
   xmlns="http://www.w3.org/2000/svg"
   xmlns:svg="http://www.w3.org/2000/svg">
  <defs
     id="defs14">
    <rect
       x="38.279449"
       y="52.516917"
       width="50.601504"
       height="45.632206"
       id="rect29" />
    <rect
       x="41.343358"
       y="62.302632"
       width="45.047619"
       height="36.786341"
       id="rect15" />
  </defs>
  <sodipodi:namedview
     id="namedview14"
     pagecolor="#ffffff"
     bordercolor="#000000"
     borderopacity="0.25"
     inkscape:showpageshadow="2"
     inkscape:pageopacity="0.0"
     inkscape:pagecheckerboard="0"
     inkscape:deskcolor="#d1d1d1"
     inkscape:zoom="6.234375"
     inkscape:cx="73.944862"
     inkscape:cy="64"
     inkscape:window-width="1783"
     inkscape:window-height="991"
     inkscape:window-x="26"
     inkscape:window-y="23"
     inkscape:window-maximized="0"
     inkscape:current-layer="g30" />
  <clipPath
     id="a">
    <path
       d="m 33 46 h 61 v 61 h -61 z m 0 0"
       id="path1" />
  </clipPath>
  <clipPath
     id="b">
    <path
       d="m 66.675781 47.21875 l 26.046875 26.046875 c 1.539063 1.539063 1.539063 4.039063 0 5.578125 l -26.046875 26.046875 c -1.539062 1.539063 -4.035156 1.539063 -5.574219 0 l -26.046874 -26.046875 c -1.542969 -1.539062 -1.542969 -4.039062 0 -5.578125 l 26.046874 -26.046875 c 1.539063 -1.539062 4.035157 -1.539062 5.574219 0 z m 0 0"
       id="path2" />
  </clipPath>
  <clipPath
     id="c">
    <path
       d="m 56 60 h 38 v 47 h -38 z m 0 0"
       id="path3" />
  </clipPath>
  <clipPath
     id="d">
    <path
       d="m 66.675781 47.21875 l 26.046875 26.046875 c 1.539063 1.539063 1.539063 4.039063 0 5.578125 l -26.046875 26.046875 c -1.539062 1.539063 -4.035156 1.539063 -5.574219 0 l -26.046874 -26.046875 c -1.542969 -1.539062 -1.542969 -4.039062 0 -5.578125 l 26.046874 -26.046875 c 1.539063 -1.539062 4.035157 -1.539062 5.574219 0 z m 0 0"
       id="path4" />
  </clipPath>
  <clipPath
     id="e">
    <path
       d="m 33 46 h 30 v 45 h -30 z m 0 0"
       id="path5" />
  </clipPath>
  <clipPath
     id="f">
    <path
       d="m 66.675781 47.21875 l 26.046875 26.046875 c 1.539063 1.539063 1.539063 4.039063 0 5.578125 l -26.046875 26.046875 c -1.539062 1.539063 -4.035156 1.539063 -5.574219 0 l -26.046874 -26.046875 c -1.542969 -1.539062 -1.542969 -4.039062 0 -5.578125 l 26.046874 -26.046875 c 1.539063 -1.539062 4.035157 -1.539062 5.574219 0 z m 0 0"
       id="path6" />
  </clipPath>
  <path
     d="m 28 8 h 50 l 30.042969 29.917969 v 74.058593 c 0 4.433594 -3.609375 8.023438 -8.042969 8.023438 h -72 c -4.433594 0 -8 -3.566406 -8 -8 v -96 c 0 -4.433594 3.566406 -8 8 -8 z m 0 0"
     fill="#f6f5f4"
     id="path7" />
  <path
     d="m 78 8 v 22 c 0 4.433594 3.609375 7.921875 8.042969 7.921875 l 22 -0.003906 z m 0 0"
     fill="#deddda"
     id="path8" />
  <g
     id="g30"
     transform="translate(0.13281263)">
    <rect
       style="fill:#fcdc00;fill-opacity:1;stroke-width:0.691"
       id="rect14"
       width="61"
       height="61"
       x="33.388672"
       y="45.554688"
       rx="10"
       ry="10" />
    <path
       style="font-weight:bold;font-size:29.3333px;font-family:'Victor Mono';-inkscape-font-specification:'Victor Mono';text-align:center;letter-spacing:0px;text-anchor:middle;white-space:pre;stroke-width:0.691"
       d="m 54.620104,80.458781 q -1.973331,0 -3.226663,-0.533333 -1.226666,-0.533333 -2.026665,-1.733331 -0.799999,-1.199999 -1.359998,-3.33333 l 2.879997,-0.799999 q 0.426666,1.493332 0.826665,2.239997 0.426667,0.746666 1.066666,1.039999 0.666666,0.293333 1.839998,0.293333 1.653331,0 2.53333,-0.639999 0.906666,-0.666666 1.279999,-2.293331 0.399999,-1.626665 0.399999,-4.693328 v -8.426657 h -3.493329 v -2.826663 h 6.559992 v 11.25332 q 0,3.919996 -0.693332,6.18666 -0.693333,2.239997 -2.266664,3.253329 -1.573332,1.013333 -4.319995,1.013333 z m 16.959965,0 q -2.026664,0 -3.359996,-0.373333 -1.306665,-0.346667 -2.213331,-1.173332 -0.879999,-0.853333 -1.573331,-2.319998 l 2.37333,-2.239997 q 0.48,1.386665 0.959999,2.053331 0.48,0.666666 1.333332,0.959999 0.853332,0.266666 2.479997,0.266666 1.546665,0 2.346664,-0.319999 0.799999,-0.346667 1.119999,-1.119999 0.32,-0.773333 0.32,-2.266664 0,-1.093332 -0.346667,-1.679998 -0.346666,-0.586666 -1.146665,-0.986666 -0.799999,-0.426666 -2.559997,-1.013332 -2.426664,-0.799999 -3.733329,-1.546665 -1.279999,-0.746666 -1.866665,-1.759998 -0.586666,-1.013332 -0.586666,-2.639997 0,-2.159997 0.613333,-3.439996 0.639999,-1.306665 2.026664,-1.893331 1.413332,-0.586666 3.813329,-0.586666 1.866665,0 3.066663,0.32 1.226666,0.319999 2.079998,1.066665 0.853332,0.719999 1.546665,2.026664 l -2.186664,2.373331 q -0.506666,-1.279999 -0.959999,-1.866665 -0.453333,-0.613332 -1.253332,-0.853332 -0.799999,-0.24 -2.293331,-0.24 -1.413332,0 -2.133331,0.266667 -0.693332,0.266666 -0.986665,0.933332 -0.266667,0.639999 -0.266667,1.893331 0,0.933332 0.293333,1.413332 0.293333,0.479999 0.986666,0.826666 0.719999,0.319999 2.346664,0.826665 2.559997,0.799999 3.946662,1.599998 1.413332,0.8 2.026664,1.973332 0.64,1.146665 0.64,2.986663 0,2.399997 -0.666666,3.813329 -0.666666,1.413331 -2.159998,2.079997 -1.466665,0.64 -4.026662,0.64 z"
       id="text29"
       transform="translate(0.66858558,6.6358942)"
       aria-label="JS" />
  </g>
</svg>
