<?xml version="1.0" encoding="UTF-8" standalone="no"?>
<svg
   height="128px"
   viewBox="0 0 128 128"
   width="128px"
   version="1.1"
   id="svg12"
   sodipodi:docname="application-x-bzip-compressed-tar.svg"
   inkscape:version="1.3.2 (091e20ef0f, 2023-11-25)"
   xmlns:inkscape="http://www.inkscape.org/namespaces/inkscape"
   xmlns:sodipodi="http://sodipodi.sourceforge.net/DTD/sodipodi-0.dtd"
   xmlns="http://www.w3.org/2000/svg"
   xmlns:svg="http://www.w3.org/2000/svg">
  <defs
     id="defs12">
    <rect
       x="20"
       y="19.135338"
       width="52"
       height="30.809974"
       id="rect12" />
  </defs>
  <sodipodi:namedview
     id="namedview12"
     pagecolor="#ffffff"
     bordercolor="#000000"
     borderopacity="0.25"
     inkscape:showpageshadow="2"
     inkscape:pageopacity="0.0"
     inkscape:pagecheckerboard="0"
     inkscape:deskcolor="#d1d1d1"
     inkscape:zoom="6.234375"
     inkscape:cx="64"
     inkscape:cy="64"
     inkscape:window-width="1920"
     inkscape:window-height="1011"
     inkscape:window-x="0"
     inkscape:window-y="0"
     inkscape:window-maximized="1"
     inkscape:current-layer="svg12" />
  <filter
     id="a"
     height="1"
     width="1"
     x="0"
     y="0">
    <feColorMatrix
       in="SourceGraphic"
       type="matrix"
       values="0 0 0 0 1 0 0 0 0 1 0 0 0 0 1 0 0 0 1 0"
       id="feColorMatrix1" />
  </filter>
  <mask
     id="b">
    <g
       filter="url(#a)"
       id="g1">
      <rect
         fill-opacity="0.1"
         height="128"
         width="128"
         id="rect1" />
    </g>
  </mask>
  <clipPath
     id="c">
    <rect
       height="152"
       width="192"
       id="rect2" />
  </clipPath>
  <path
     d="m 28 8 h 50 l 30.042969 29.917969 v 74.058593 c 0 4.433594 -3.609375 8.023438 -8.042969 8.023438 h -72 c -4.433594 0 -8 -3.566406 -8 -8 v -96 c 0 -4.433594 3.566406 -8 8 -8 z m 0 0"
     fill="#ded4ca"
     id="path2" />
  <path
     d="m 78 8 v 22 c 0 4.433594 3.609375 7.921875 8.042969 7.921875 l 22 -0.003906 z m 0 0"
     fill="#c9b8a7"
     id="path3" />
  <path
     d="m 60 60 v 4 h 4 v -2 h 4 v -2 z m 4 4 v 2 h -4 v 4 h 4 v -2 h 4 v -4 z m 0 6 v 2 h -4 v 4 h 4 v -2 h 4 v -4 z m 0 6 v 2 h -4 v 4 h 4 v -2 h 4 v -4 z m 0 6 v 2 h -4 v 4 h 4 v -2 h 4 v -4 z m 0 6 v 2 h -4 v 4 h 4 v -2 h 4 v -4 z m 0 6 v 2 h -4 v 4 h 4 v -2 h 4 v -4 z m 0 6 v 2 h -4 v 4 h 4 v -2 h 4 v -4 z m 0 6 v 2 h -4 v 4 h 4 v -2 h 4 v -4 z m 0 6 v 2 h -4 v 4 h 4 v -2 h 4 v -4 z m 0 0"
     fill="#ffffff"
     id="path4" />
  <g
     clip-path="url(#c)"
     mask="url(#b)"
     transform="matrix(1 0 0 1 -8 -16)"
     id="g5">
    <path
       d="m 68 67 c -2.214844 0 -4 1.785156 -4 4 v 10 c 0 2.214844 1.785156 4 4 4 v 8 c 0 1.109375 0.890625 2 2 2 h 4 c 1.109375 0 2 -0.890625 2 -2 v -8 c 2.214844 0 4 -1.785156 4 -4 v -10 c 0 -2.214844 -1.785156 -4 -4 -4 z m 2 22 h 4 v 4 h -4 z m 0 0"
       id="path5" />
  </g>
  <path
     d="m 60 62 v 4 h 4 v -2 h 4 v -2 z m 4 4 v 2 h -4 v 4 h 4 v -2 h 4 v -4 z m 0 6 v 2 h -4 v 4 h 4 v -2 h 4 v -4 z m 0 6 v 2 h -4 v 4 h 4 v -2 h 4 v -4 z m 0 6 v 2 h -4 v 4 h 4 v -2 h 4 v -4 z m 0 6 v 2 h -4 v 4 h 4 v -2 h 4 v -4 z m 0 6 v 2 h -4 v 4 h 4 v -2 h 4 v -4 z m 0 6 v 2 h -4 v 4 h 4 v -2 h 4 v -4 z m 0 6 v 2 h -4 v 4 h 4 v -2 h 4 v -4 z m 0 6 v 2 h -4 v 4 h 4 v -2 h 4 v -4 z m 0 0"
     fill="#c0bfbc"
     id="path6" />
  <path
     d="m 62 57 c -1.109375 0 -2 0.890625 -2 2 v 16 c 0 1.109375 0.890625 2 2 2 h 4 c 1.109375 0 2 -0.890625 2 -2 v -16 c 0 -1.109375 -0.890625 -2 -2 -2 z m 0 14 h 4 v 4 h -4 z m 0 0"
     fill="#77767b"
     id="path7" />
  <path
     d="m 58.503906 49 h 10.992188 c 1.382812 0 2.503906 1.121094 2.503906 2.503906 v 12.992188 c 0 1.382812 -1.121094 2.503906 -2.503906 2.503906 h -10.992188 c -1.382812 0 -2.503906 -1.121094 -2.503906 -2.503906 v -12.992188 c 0 -1.382812 1.121094 -2.503906 2.503906 -2.503906 z m 0 0"
     fill="#77767b"
     id="path8" />
  <path
     d="m 58.945312 47 h 10.109376 c 1.628906 0 2.945312 1.316406 2.945312 2.945312 v 12.109376 c 0 1.628906 -1.316406 2.945312 -2.945312 2.945312 h -10.109376 c -1.628906 0 -2.945312 -1.316406 -2.945312 -2.945312 v -12.109376 c 0 -1.628906 1.316406 -2.945312 2.945312 -2.945312 z m 0 0"
     fill="#9a9996"
     id="path9" />
  <path
     d="m 62 53 c -1.109375 0 -2 0.890625 -2 2 v 18 c 0 1.109375 0.890625 2 2 2 h 4 c 1.109375 0 2 -0.890625 2 -2 v -18 c 0 -1.109375 -0.890625 -2 -2 -2 z m 0 16 h 4 v 4 h -4 z m 0 0"
     fill="#ffffff"
     id="path10" />
  <path
     d="m 64 59 c 1.105469 0 2 -0.894531 2 -2 v -6 c 0 -1.105469 -0.894531 -2 -2 -2 s -2 0.894531 -2 2 v 6 c 0 1.105469 0.894531 2 2 2 z m 0 0"
     fill="#77767b"
     id="path11" />
  <path
     d="m 64 57 c 1.105469 0 2 -0.894531 2 -2 v -4 c 0 -1.105469 -0.894531 -2 -2 -2 s -2 0.894531 -2 2 v 4 c 0 1.105469 0.894531 2 2 2 z m 0 0"
     fill="#9a9996"
     id="path12" />
  <rect
     style="fill:#6b5542;fill-opacity:1"
     id="rect13"
     width="39.383457"
     height="18.424812"
     x="28.616543"
     y="13.713659"
     rx="2"
     ry="2" />
  <path
     style="font-weight:bold;font-size:26.6667px;white-space:pre;fill:#ffffff;stroke-width:0.691133"
     d="M 38.208487,29.505662 H 35.425521 V 18.66868 h -3.575467 v -2.322211 h 9.9339 v 2.322211 h -3.575467 z m 9.694315,-13.159193 q 2.635525,0 3.980932,0.73721 1.345408,0.737209 1.345408,2.598664 0,0.73721 -0.239593,1.345407 -0.239593,0.608198 -0.70035,0.995234 -0.442326,0.387035 -1.087384,0.497616 v 0.09215 q 0.663489,0.129011 1.197965,0.460755 0.534478,0.331745 0.847792,0.958373 0.313314,0.626628 0.313314,1.658722 0,1.197965 -0.589768,2.064186 -0.571338,0.847791 -1.658722,1.308548 -1.087383,0.442326 -2.580233,0.442326 H 43.811289 V 16.346469 Z m 0.313314,5.215759 q 1.216396,0 1.677152,-0.387035 0.479186,-0.387036 0.479186,-1.124245 0,-0.75564 -0.552907,-1.087384 -0.552907,-0.331745 -1.750873,-0.331745 h -1.474419 v 2.930409 z m -1.621861,2.211629 v 3.428024 h 1.824594 q 1.253256,0 1.750873,-0.479186 0.497616,-0.497616 0.497616,-1.308547 0,-0.497617 -0.221163,-0.866221 -0.202733,-0.368605 -0.718779,-0.571338 -0.516047,-0.202732 -1.400698,-0.202732 z m 18.172233,5.731805 H 54.98003 v -1.806164 l 6.303142,-9.049248 h -6.13727 v -2.303781 h 9.454713 v 1.806164 l -6.303142,9.049248 h 6.469015 z"
     id="text12"
     aria-label="TBZ" />
</svg>
