<?xml version="1.0" encoding="UTF-8" standalone="no"?>
<svg
   height="128px"
   viewBox="0 0 128 128"
   width="128px"
   version="1.1"
   id="svg20"
   sodipodi:docname="application-xml.svg"
   inkscape:version="1.3.2 (091e20ef0f, 2023-11-25)"
   xmlns:inkscape="http://www.inkscape.org/namespaces/inkscape"
   xmlns:sodipodi="http://sodipodi.sourceforge.net/DTD/sodipodi-0.dtd"
   xmlns="http://www.w3.org/2000/svg"
   xmlns:svg="http://www.w3.org/2000/svg">
  <defs
     id="defs20">
    <rect
       x="30.798246"
       y="13.748529"
       width="34.916919"
       height="18.42481"
       id="rect20" />
  </defs>
  <sodipodi:namedview
     id="namedview20"
     pagecolor="#ffffff"
     bordercolor="#000000"
     borderopacity="0.25"
     inkscape:showpageshadow="2"
     inkscape:pageopacity="0.0"
     inkscape:pagecheckerboard="0"
     inkscape:deskcolor="#d1d1d1"
     inkscape:zoom="6.234375"
     inkscape:cx="48.761905"
     inkscape:cy="45.393484"
     inkscape:window-width="1920"
     inkscape:window-height="1011"
     inkscape:window-x="0"
     inkscape:window-y="0"
     inkscape:window-maximized="1"
     inkscape:current-layer="svg20" />
  <path
     d="m 28 8 h 50 l 30.042969 29.917969 v 74.058593 c 0 4.433594 -3.609375 8.023438 -8.042969 8.023438 h -72 c -4.433594 0 -8 -3.566406 -8 -8 v -96 c 0 -4.433594 3.566406 -8 8 -8 z m 0 0"
     fill="#f6f5f4"
     id="path1" />
  <rect
     style="fill:#6b5542;fill-opacity:1"
     id="rect13"
     width="39.383457"
     height="18.424812"
     x="26.331709"
     y="13.748529"
     rx="2"
     ry="2" />
  <path
     d="m 78 8 v 22 c 0 4.433594 3.609375 7.921875 8.042969 7.921875 l 22 -0.003906 z m 0 0"
     fill="#deddda"
     id="path2" />
  <path
     d="m 94.023438 73.917969 c 0 16.570312 -13.433594 30 -30 30 c -16.570313 0 -30 -13.429688 -30 -30 c 0 -16.566407 13.429687 -30 30 -30 c 16.566406 0 30 13.433593 30 30 z m 0 0"
     fill="#62a0ea"
     id="path3" />
  <path
     d="m 94.023438 72.917969 c 0 16.570312 -13.433594 30 -30 30 c -16.570313 0 -30 -13.429688 -30 -30 c 0 -16.566407 13.429687 -30 30 -30 c 16.566406 0 30 13.433593 30 30 z m 0 0"
     fill="#3584e4"
     id="path4" />
  <path
     d="m 46.023438 73.417969 c 0.0625 6.957031 1.441406 13.683593 3.917968 19.125 c -1.96875 1.007812 -3.640625 2.222656 -4.929687 3.582031 c -6.820313 -5.585938 -10.839844 -13.890625 -10.984375 -22.707031 z m 0 0"
     fill="#99c1f1"
     id="path5" />
  <path
     d="m 64.023438 73.417969 v 29.5 c -2.253907 0 -4.496094 -0.253907 -6.691407 -0.753907 c -6.734375 -4.71875 -11.191406 -16.050781 -11.308593 -28.746093 z m 0 0"
     fill="#62a0ea"
     id="path6" />
  <path
     d="m 64.023438 89.417969 v 13.5 c -2.253907 0 -4.496094 -0.253907 -6.691407 -0.753907 c -2.898437 -2.03125 -5.445312 -5.34375 -7.390625 -9.617187 c 3.953125 -2.023437 8.9375 -3.128906 14.082032 -3.128906 z m 0 0"
     fill="#3584e4"
     id="path7" />
  <path
     d="m 49.941406 92.542969 c 1.945313 4.273437 4.492188 7.589843 7.390625 9.621093 c -4.515625 -1.035156 -8.734375 -3.101562 -12.320312 -6.039062 c 1.289062 -1.359375 2.960937 -2.574219 4.929687 -3.582031 z m 0 0"
     fill="#62a0ea"
     id="path8" />
  <path
     d="m 82.019531 73.417969 c -0.0625 6.960937 -1.441406 13.683593 -3.917969 19.128906 c 1.972657 1.007813 3.640626 2.21875 4.929688 3.578125 c 6.820312 -5.585938 10.839844 -13.890625 10.988281 -22.707031 z m 0 0"
     fill="#1c71d8"
     id="path9" />
  <path
     d="m 64.023438 73.417969 v 29.5 c 2.25 0 4.492187 -0.253907 6.6875 -0.753907 c 6.734374 -4.71875 11.195312 -16.050781 11.308593 -28.746093 z m 0 0"
     fill="#3584e4"
     id="path10" />
  <path
     d="m 64.023438 89.417969 v 13.5 c 2.25 0 4.492187 -0.253907 6.6875 -0.753907 c 2.898437 -2.03125 5.445312 -5.34375 7.390624 -9.617187 c -3.953124 -2.023437 -8.933593 -3.128906 -14.078124 -3.128906 z m 0 0"
     fill="#1c71d8"
     id="path11" />
  <path
     d="m 78.101562 92.542969 c -1.945312 4.273437 -4.492187 7.589843 -7.390624 9.621093 c 4.519531 -1.035156 8.734374 -3.101562 12.320312 -6.039062 c -1.289062 -1.359375 -2.957031 -2.574219 -4.929688 -3.582031 z m 0 0"
     fill="#1a5fb4"
     id="path12" />
  <path
     d="m 64.023438 42.917969 c -16.570313 0 -30 13.433593 -30 30 c 0 0.167969 0 0.335937 0.003906 0.5 h 29.996094 z m 0 0"
     fill="#b3d3f9"
     id="path13" />
  <path
     d="m 57.335938 43.675781 c -4.519532 1.03125 -8.738282 3.097657 -12.324219 6.035157 c 1.289062 1.363281 2.960937 2.574218 4.929687 3.582031 c 1.945313 -4.273438 4.496094 -7.589844 7.394532 -9.617188 z m 0 0"
     fill="#d7e8fc"
     id="path14" />
  <path
     d="m 64.023438 42.917969 c -2.25 0 -4.496094 0.253906 -6.6875 0.757812 c -6.832032 4.78125 -11.3125 16.363281 -11.3125 29.242188 v 0.5 h 18 z m 0 0"
     fill="#99c1f1"
     id="path15" />
  <path
     d="m 64.023438 42.917969 c -2.25 0 -4.496094 0.253906 -6.6875 0.757812 c -2.898438 2.027344 -5.445313 5.34375 -7.390626 9.617188 c 3.953126 2.019531 8.933594 3.125 14.078126 3.125 z m 0 0"
     fill="#b3d3f9"
     id="path16" />
  <path
     d="m 64.023438 42.917969 c 16.566406 0 30 13.433593 30 30 c 0 0.167969 -0.003907 0.335937 -0.003907 0.5 h -29.996093 z m 0 0"
     fill="#3584e4"
     id="path17" />
  <path
     d="m 70.707031 43.675781 c 4.519531 1.03125 8.738281 3.097657 12.328125 6.035157 c -1.292968 1.363281 -2.960937 2.574218 -4.933594 3.582031 c -1.945312 -4.273438 -4.492187 -7.589844 -7.394531 -9.617188 z m 0 0"
     fill="#62a0ea"
     id="path18" />
  <path
     d="m 64.023438 42.917969 c 2.25 0 4.492187 0.253906 6.683593 0.757812 c 6.835938 4.78125 11.316407 16.363281 11.316407 29.242188 c 0 0.167969 0 0.335937 -0.003907 0.5 h -17.996093 z m 0 0"
     fill="#62a0ea"
     id="path19" />
  <path
     d="m 64.023438 42.917969 c 2.25 0 4.492187 0.253906 6.683593 0.757812 c 2.902344 2.027344 5.449219 5.34375 7.394531 9.617188 c -3.953124 2.019531 -8.933593 3.125 -14.078124 3.125 z m 0 0"
     fill="#99c1f1"
     id="path20" />
  <path
     style="font-weight:bold;font-size:16px;letter-spacing:0px;white-space:pre;fill:#ffffff;stroke-width:0.691"
     d="m 39.567433,28.672936 h -2.768 l -2.656,-4.32 -2.656,4.32 h -2.592 l 3.792,-5.888 -3.552,-5.536 h 2.672 l 2.464,4.112 2.415999,-4.112 h 2.608 l -3.584,5.664 z m 6.271997,0 -2.752001,-8.96 h -0.064 q 0.016,0.32 0.048,0.96 0.032,0.64 0.064,1.376 0.032,0.72 0.032,1.312 v 5.312 h -2.16 v -11.424 h 3.296 l 2.704,8.736 h 0.048 l 2.864,-8.736 h 3.296 v 11.424 h -2.256 v -5.408 q 0,-0.544 0.016,-1.248 0.032,-0.704 0.048,-1.328 0.032,-0.64 0.048,-0.96 h -0.064 l -2.944,8.944 z m 10.256012,0 v -11.424 h 2.416 v 9.424 h 4.64 v 2 z"
     id="text20"
     aria-label="XML" />
</svg>
