<?xml version="1.0" encoding="UTF-8" standalone="no"?>
<svg
   height="128px"
   viewBox="0 0 128 128"
   width="128px"
   version="1.1"
   id="svg12"
   sodipodi:docname="application-x-zstd-compressed-tar.svg"
   inkscape:version="1.3.2 (091e20ef0f, 2023-11-25)"
   xmlns:inkscape="http://www.inkscape.org/namespaces/inkscape"
   xmlns:sodipodi="http://sodipodi.sourceforge.net/DTD/sodipodi-0.dtd"
   xmlns="http://www.w3.org/2000/svg"
   xmlns:svg="http://www.w3.org/2000/svg">
  <defs
     id="defs12">
    <rect
       x="20"
       y="19.135338"
       width="52"
       height="30.809974"
       id="rect12" />
  </defs>
  <sodipodi:namedview
     id="namedview12"
     pagecolor="#ffffff"
     bordercolor="#000000"
     borderopacity="0.25"
     inkscape:showpageshadow="2"
     inkscape:pageopacity="0.0"
     inkscape:pagecheckerboard="0"
     inkscape:deskcolor="#d1d1d1"
     inkscape:zoom="6.234375"
     inkscape:cx="64"
     inkscape:cy="64"
     inkscape:window-width="1920"
     inkscape:window-height="1011"
     inkscape:window-x="0"
     inkscape:window-y="0"
     inkscape:window-maximized="1"
     inkscape:current-layer="svg12" />
  <filter
     id="a"
     height="1"
     width="1"
     x="0"
     y="0">
    <feColorMatrix
       in="SourceGraphic"
       type="matrix"
       values="0 0 0 0 1 0 0 0 0 1 0 0 0 0 1 0 0 0 1 0"
       id="feColorMatrix1" />
  </filter>
  <mask
     id="b">
    <g
       filter="url(#a)"
       id="g1">
      <rect
         fill-opacity="0.1"
         height="128"
         width="128"
         id="rect1" />
    </g>
  </mask>
  <clipPath
     id="c">
    <rect
       height="152"
       width="192"
       id="rect2" />
  </clipPath>
  <path
     d="m 28 8 h 50 l 30.042969 29.917969 v 74.058593 c 0 4.433594 -3.609375 8.023438 -8.042969 8.023438 h -72 c -4.433594 0 -8 -3.566406 -8 -8 v -96 c 0 -4.433594 3.566406 -8 8 -8 z m 0 0"
     fill="#ded4ca"
     id="path2" />
  <path
     d="m 78 8 v 22 c 0 4.433594 3.609375 7.921875 8.042969 7.921875 l 22 -0.003906 z m 0 0"
     fill="#c9b8a7"
     id="path3" />
  <path
     d="m 60 60 v 4 h 4 v -2 h 4 v -2 z m 4 4 v 2 h -4 v 4 h 4 v -2 h 4 v -4 z m 0 6 v 2 h -4 v 4 h 4 v -2 h 4 v -4 z m 0 6 v 2 h -4 v 4 h 4 v -2 h 4 v -4 z m 0 6 v 2 h -4 v 4 h 4 v -2 h 4 v -4 z m 0 6 v 2 h -4 v 4 h 4 v -2 h 4 v -4 z m 0 6 v 2 h -4 v 4 h 4 v -2 h 4 v -4 z m 0 6 v 2 h -4 v 4 h 4 v -2 h 4 v -4 z m 0 6 v 2 h -4 v 4 h 4 v -2 h 4 v -4 z m 0 6 v 2 h -4 v 4 h 4 v -2 h 4 v -4 z m 0 0"
     fill="#ffffff"
     id="path4" />
  <g
     clip-path="url(#c)"
     mask="url(#b)"
     transform="matrix(1 0 0 1 -8 -16)"
     id="g5">
    <path
       d="m 68 67 c -2.214844 0 -4 1.785156 -4 4 v 10 c 0 2.214844 1.785156 4 4 4 v 8 c 0 1.109375 0.890625 2 2 2 h 4 c 1.109375 0 2 -0.890625 2 -2 v -8 c 2.214844 0 4 -1.785156 4 -4 v -10 c 0 -2.214844 -1.785156 -4 -4 -4 z m 2 22 h 4 v 4 h -4 z m 0 0"
       id="path5" />
  </g>
  <path
     d="m 60 62 v 4 h 4 v -2 h 4 v -2 z m 4 4 v 2 h -4 v 4 h 4 v -2 h 4 v -4 z m 0 6 v 2 h -4 v 4 h 4 v -2 h 4 v -4 z m 0 6 v 2 h -4 v 4 h 4 v -2 h 4 v -4 z m 0 6 v 2 h -4 v 4 h 4 v -2 h 4 v -4 z m 0 6 v 2 h -4 v 4 h 4 v -2 h 4 v -4 z m 0 6 v 2 h -4 v 4 h 4 v -2 h 4 v -4 z m 0 6 v 2 h -4 v 4 h 4 v -2 h 4 v -4 z m 0 6 v 2 h -4 v 4 h 4 v -2 h 4 v -4 z m 0 6 v 2 h -4 v 4 h 4 v -2 h 4 v -4 z m 0 0"
     fill="#c0bfbc"
     id="path6" />
  <path
     d="m 62 57 c -1.109375 0 -2 0.890625 -2 2 v 16 c 0 1.109375 0.890625 2 2 2 h 4 c 1.109375 0 2 -0.890625 2 -2 v -16 c 0 -1.109375 -0.890625 -2 -2 -2 z m 0 14 h 4 v 4 h -4 z m 0 0"
     fill="#77767b"
     id="path7" />
  <path
     d="m 58.503906 49 h 10.992188 c 1.382812 0 2.503906 1.121094 2.503906 2.503906 v 12.992188 c 0 1.382812 -1.121094 2.503906 -2.503906 2.503906 h -10.992188 c -1.382812 0 -2.503906 -1.121094 -2.503906 -2.503906 v -12.992188 c 0 -1.382812 1.121094 -2.503906 2.503906 -2.503906 z m 0 0"
     fill="#77767b"
     id="path8" />
  <path
     d="m 58.945312 47 h 10.109376 c 1.628906 0 2.945312 1.316406 2.945312 2.945312 v 12.109376 c 0 1.628906 -1.316406 2.945312 -2.945312 2.945312 h -10.109376 c -1.628906 0 -2.945312 -1.316406 -2.945312 -2.945312 v -12.109376 c 0 -1.628906 1.316406 -2.945312 2.945312 -2.945312 z m 0 0"
     fill="#9a9996"
     id="path9" />
  <path
     d="m 62 53 c -1.109375 0 -2 0.890625 -2 2 v 18 c 0 1.109375 0.890625 2 2 2 h 4 c 1.109375 0 2 -0.890625 2 -2 v -18 c 0 -1.109375 -0.890625 -2 -2 -2 z m 0 16 h 4 v 4 h -4 z m 0 0"
     fill="#ffffff"
     id="path10" />
  <path
     d="m 64 59 c 1.105469 0 2 -0.894531 2 -2 v -6 c 0 -1.105469 -0.894531 -2 -2 -2 s -2 0.894531 -2 2 v 6 c 0 1.105469 0.894531 2 2 2 z m 0 0"
     fill="#77767b"
     id="path11" />
  <path
     d="m 64 57 c 1.105469 0 2 -0.894531 2 -2 v -4 c 0 -1.105469 -0.894531 -2 -2 -2 s -2 0.894531 -2 2 v 4 c 0 1.105469 0.894531 2 2 2 z m 0 0"
     fill="#9a9996"
     id="path12" />
  <rect
     style="fill:#6b5542;fill-opacity:1"
     id="rect13"
     width="39.383457"
     height="18.424812"
     x="28.616543"
     y="13.713659"
     rx="2"
     ry="2" />
  <path
     style="font-weight:bold;font-size:21.2212px;white-space:pre;fill:#ffffff;stroke-width:0.691133"
     d="m 36.882919,28.162068 h -2.214667 v -8.624005 h -2.845336 v -1.848001 h 7.905338 v 1.848001 h -2.845335 z m 11.278681,0 h -7.788005 v -1.437333 l 5.016003,-7.201338 H 40.505595 V 17.690062 H 48.0296 v 1.437334 l -5.016003,7.201338 H 48.1616 Z m 7.846679,-2.904001 q 0,0.924 -0.454667,1.613334 -0.454668,0.689334 -1.320002,1.070667 -0.850666,0.366667 -2.082667,0.366667 -0.542668,0 -1.070668,-0.07333 -0.513333,-0.07333 -0.997333,-0.205334 -0.469334,-0.146667 -0.894668,-0.351999 V 25.61007 q 0.748001,0.322667 1.540001,0.601333 0.806667,0.264001 1.598668,0.264001 0.542667,0 0.865334,-0.146667 0.337333,-0.146667 0.484,-0.396 0.161333,-0.249334 0.161333,-0.572 0,-0.396001 -0.278667,-0.674667 -0.263999,-0.278667 -0.718667,-0.513334 -0.454667,-0.249334 -1.041333,-0.528001 -0.366667,-0.176 -0.792001,-0.410666 -0.425334,-0.249334 -0.821334,-0.601334 -0.381333,-0.366667 -0.630667,-0.880001 -0.249333,-0.513334 -0.249333,-1.232 0,-0.938667 0.425333,-1.598668 0.440001,-0.674667 1.232001,-1.026667 0.806667,-0.352 1.892002,-0.352 0.821333,0 1.554667,0.190666 0.748,0.190667 1.554667,0.542667 L 55.245611,20.0074 q -0.718667,-0.293334 -1.290667,-0.454667 -0.572,-0.161333 -1.173334,-0.161333 -0.410667,0 -0.704001,0.132 -0.293333,0.132 -0.454666,0.366667 -0.146667,0.234666 -0.146667,0.557334 0,0.366666 0.22,0.630666 0.22,0.249334 0.66,0.484001 0.440001,0.234666 1.100001,0.557333 0.806667,0.381334 1.364,0.792001 0.572001,0.410667 0.880002,0.968001 0.308,0.557333 0.308,1.378667 z m 5.940013,2.904001 h -2.214668 v -8.624005 h -2.845335 v -1.848001 h 7.905338 v 1.848001 h -2.845335 z"
     id="text12"
     aria-label="TZST" />
</svg>
