<?xml version="1.0" encoding="UTF-8" standalone="no"?>
<svg
   height="128px"
   viewBox="0 0 128 128"
   width="128px"
   version="1.1"
   id="svg2"
   sodipodi:docname="text-css.svg"
   inkscape:version="1.3.2 (091e20ef0f, 2023-11-25)"
   xmlns:inkscape="http://www.inkscape.org/namespaces/inkscape"
   xmlns:sodipodi="http://sodipodi.sourceforge.net/DTD/sodipodi-0.dtd"
   xmlns="http://www.w3.org/2000/svg"
   xmlns:svg="http://www.w3.org/2000/svg">
  <defs
     id="defs2">
    <rect
       x="38.279449"
       y="52.516918"
       width="50.601505"
       height="45.632206"
       id="rect29" />
  </defs>
  <sodipodi:namedview
     id="namedview2"
     pagecolor="#ffffff"
     bordercolor="#000000"
     borderopacity="0.25"
     inkscape:showpageshadow="2"
     inkscape:pageopacity="0.0"
     inkscape:pagecheckerboard="0"
     inkscape:deskcolor="#d1d1d1"
     inkscape:zoom="6.234375"
     inkscape:cx="64"
     inkscape:cy="64"
     inkscape:window-width="1920"
     inkscape:window-height="1011"
     inkscape:window-x="0"
     inkscape:window-y="0"
     inkscape:window-maximized="1"
     inkscape:current-layer="g30" />
  <path
     d="m 28 8 h 50 l 30.042969 29.917969 v 74.058593 c 0 4.433594 -3.609375 8.023438 -8.042969 8.023438 h -72 c -4.433594 0 -8 -3.566406 -8 -8 v -96 c 0 -4.433594 3.566406 -8 8 -8 z m 0 0"
     fill="#f6f5f4"
     id="path1" />
  <path
     d="m 77.978515,8 v 22 c 0,4.433594 3.60938,7.921875 8.04297,7.921875 l 22.000005,-0.0039 z m 0,0"
     fill="#deddda"
     id="path8" />
  <g
     id="g30"
     transform="translate(0.111328)">
    <rect
       style="fill:#0d73b7;fill-opacity:1;stroke-width:0.691"
       id="rect14"
       width="61"
       height="61"
       x="33.388672"
       y="45.554688"
       rx="10"
       ry="10" />
    <path
       style="font-weight:bold;font-size:29.3333px;font-family:'Victor Mono';-inkscape-font-specification:'Victor Mono';text-align:center;letter-spacing:0px;white-space:pre;fill:#ffffff;stroke-width:0.691"
       d="m 48.302038,87.094675 q -2.746664,0 -4.319995,-1.093332 -1.573332,-1.119999 -2.266664,-3.49333 -0.693333,-2.399997 -0.693333,-6.479992 0,-4.053329 0.693333,-6.42666 0.693332,-2.399997 2.266664,-3.493329 1.573331,-1.093332 4.319995,-1.093332 1.919998,0 3.17333,0.533333 1.253332,0.533332 2.053331,1.759998 0.826665,1.199998 1.413331,3.306663 l -2.906663,1.013332 q -0.453333,-1.599998 -0.879999,-2.373331 -0.426666,-0.799999 -1.066665,-1.093332 -0.64,-0.32 -1.786665,-0.32 -1.626665,0 -2.53333,0.746666 -0.906666,0.746666 -1.306666,2.506664 -0.373333,1.759998 -0.373333,4.933328 0,3.199996 0.373333,4.959994 0.4,1.759998 1.306666,2.53333 0.906665,0.746666 2.53333,0.746666 1.146665,0 1.786665,-0.293333 0.639999,-0.319999 1.066665,-1.066665 0.426666,-0.773333 0.879999,-2.346664 l 2.906663,0.986665 q -0.586666,2.079998 -1.413331,3.279997 -0.799999,1.199998 -2.053331,1.733331 -1.226666,0.533333 -3.17333,0.533333 z m 15.599967,0 q -2.026664,0 -3.359996,-0.373333 -1.306665,-0.346667 -2.213331,-1.173332 -0.879999,-0.853333 -1.573331,-2.319998 l 2.37333,-2.239997 q 0.48,1.386665 0.959999,2.053331 0.48,0.666666 1.333332,0.959999 0.853332,0.266666 2.479997,0.266666 1.546665,0 2.346664,-0.319999 0.799999,-0.346667 1.119999,-1.119999 0.319999,-0.773333 0.319999,-2.266664 0,-1.093332 -0.346666,-1.679998 -0.346666,-0.586666 -1.146665,-0.986666 -0.799999,-0.426666 -2.559997,-1.013332 -2.426664,-0.799999 -3.733329,-1.546665 -1.279999,-0.746666 -1.866665,-1.759998 -0.586666,-1.013332 -0.586666,-2.639997 0,-2.159997 0.613333,-3.439996 0.639999,-1.306665 2.026664,-1.893331 1.413332,-0.586666 3.813329,-0.586666 1.866665,0 3.066663,0.32 1.226665,0.319999 2.079998,1.066665 0.853332,0.719999 1.546665,2.026664 L 68.408667,70.80136 Q 67.902,69.521361 67.448668,68.934695 q -0.453333,-0.613332 -1.253332,-0.853332 -0.799999,-0.24 -2.293331,-0.24 -1.413332,0 -2.133331,0.266667 -0.693332,0.266666 -0.986665,0.933332 -0.266667,0.639999 -0.266667,1.893331 0,0.933332 0.293333,1.413332 0.293333,0.479999 0.986666,0.826666 0.719999,0.319999 2.346664,0.826665 2.559997,0.799999 3.946662,1.599998 1.413332,0.8 2.026664,1.973332 0.639999,1.146665 0.639999,2.986663 0,2.399997 -0.666665,3.813329 -0.666666,1.413331 -2.159998,2.079997 -1.466665,0.64 -4.026662,0.64 z m 15.999967,0 q -2.026665,0 -3.359997,-0.373333 -1.306665,-0.346667 -2.21333,-1.173332 -0.879999,-0.853333 -1.573332,-2.319998 l 2.373331,-2.239997 q 0.479999,1.386665 0.959999,2.053331 0.479999,0.666666 1.333331,0.959999 0.853333,0.266666 2.479998,0.266666 1.546665,0 2.346664,-0.319999 0.799999,-0.346667 1.119998,-1.119999 0.32,-0.773333 0.32,-2.266664 0,-1.093332 -0.346666,-1.679998 -0.346667,-0.586666 -1.146666,-0.986666 -0.799999,-0.426666 -2.559997,-1.013332 -2.426664,-0.799999 -3.733329,-1.546665 -1.279998,-0.746666 -1.866664,-1.759998 -0.586666,-1.013332 -0.586666,-2.639997 0,-2.159997 0.613332,-3.439996 0.64,-1.306665 2.026665,-1.893331 1.413331,-0.586666 3.813329,-0.586666 1.866664,0 3.066663,0.32 1.226665,0.319999 2.079997,1.066665 0.853333,0.719999 1.546665,2.026664 l -2.186664,2.373331 q -0.506666,-1.279999 -0.959999,-1.866665 -0.453333,-0.613332 -1.253332,-0.853332 -0.799999,-0.24 -2.29333,-0.24 -1.413332,0 -2.133331,0.266667 -0.693333,0.266666 -0.986666,0.933332 -0.266666,0.639999 -0.266666,1.893331 0,0.933332 0.293333,1.413332 0.293333,0.479999 0.986665,0.826666 0.72,0.319999 2.346664,0.826665 2.559997,0.799999 3.946662,1.599998 1.413332,0.8 2.026665,1.973332 0.639999,1.146665 0.639999,2.986663 0,2.399997 -0.666666,3.813329 -0.666666,1.413331 -2.159997,2.079997 -1.466665,0.64 -4.026662,0.64 z"
       id="text29"
       aria-label="CSS" />
  </g>
</svg>
