<?xml version="1.0" encoding="UTF-8" standalone="no"?>
<svg
   height="128px"
   viewBox="0 0 128 128"
   width="128px"
   version="1.1"
   id="svg2"
   sodipodi:docname="text-scss.svg"
   inkscape:version="1.3.2 (091e20ef0f, 2023-11-25)"
   xmlns:inkscape="http://www.inkscape.org/namespaces/inkscape"
   xmlns:sodipodi="http://sodipodi.sourceforge.net/DTD/sodipodi-0.dtd"
   xmlns="http://www.w3.org/2000/svg"
   xmlns:svg="http://www.w3.org/2000/svg">
  <defs
     id="defs2">
    <rect
       x="38.279449"
       y="52.516918"
       width="50.601505"
       height="45.632206"
       id="rect29" />
  </defs>
  <sodipodi:namedview
     id="namedview2"
     pagecolor="#ffffff"
     bordercolor="#000000"
     borderopacity="0.25"
     inkscape:showpageshadow="2"
     inkscape:pageopacity="0.0"
     inkscape:pagecheckerboard="0"
     inkscape:deskcolor="#d1d1d1"
     inkscape:zoom="6.234375"
     inkscape:cx="64"
     inkscape:cy="64"
     inkscape:window-width="1920"
     inkscape:window-height="1011"
     inkscape:window-x="0"
     inkscape:window-y="0"
     inkscape:window-maximized="1"
     inkscape:current-layer="g30" />
  <path
     d="m 28 8 h 50 l 30.042969 29.917969 v 74.058593 c 0 4.433594 -3.609375 8.023438 -8.042969 8.023438 h -72 c -4.433594 0 -8 -3.566406 -8 -8 v -96 c 0 -4.433594 3.566406 -8 8 -8 z m 0 0"
     fill="#f6f5f4"
     id="path1" />
  <path
     d="m 77.978515,8 v 22 c 0,4.433594 3.60938,7.921875 8.04297,7.921875 l 22.000005,-0.0039 z m 0,0"
     fill="#deddda"
     id="path8" />
  <g
     id="g30"
     transform="translate(0.111328)">
    <rect
       style="fill:#ce6699;fill-opacity:1;stroke-width:0.691"
       id="rect14"
       width="61"
       height="61"
       x="33.388672"
       y="45.554688"
       rx="10"
       ry="10" />
    <path
       style="font-weight:bold;font-size:21.3333px;font-family:'Victor Mono';-inkscape-font-specification:'Victor Mono';text-align:center;letter-spacing:0px;white-space:pre;fill:#ffffff;stroke-width:0.691"
       d="m 46.125582,80.356962 q -1.473937,0 -2.443632,-0.271514 -0.950302,-0.252121 -1.609694,-0.853332 -0.639999,-0.620605 -1.144241,-1.68727 l 1.726058,-1.629089 q 0.34909,1.008484 0.69818,1.493331 0.349091,0.484848 0.969696,0.698181 0.620605,0.193939 1.803633,0.193939 1.124847,0 1.706664,-0.232727 0.581818,-0.252121 0.814545,-0.814544 0.232726,-0.562423 0.232726,-1.648482 0,-0.79515 -0.25212,-1.221816 -0.252121,-0.426666 -0.833938,-0.717575 -0.581818,-0.310303 -1.861816,-0.736969 -1.764845,-0.581817 -2.715147,-1.124846 -0.930907,-0.54303 -1.357573,-1.279998 -0.426666,-0.736969 -0.426666,-1.919997 0,-1.570907 0.446059,-2.501815 0.465454,-0.950301 1.473937,-1.376967 1.027878,-0.426666 2.773329,-0.426666 1.357574,0 2.2303,0.232727 0.89212,0.232727 1.512725,0.775756 0.620605,0.523636 1.124847,1.473937 l -1.590301,1.726058 q -0.368484,-0.930907 -0.698181,-1.357573 -0.329696,-0.44606 -0.911513,-0.620606 -0.581818,-0.174545 -1.667877,-0.174545 -1.027877,0 -1.551512,0.193939 -0.504242,0.193939 -0.717575,0.678787 -0.193939,0.465454 -0.193939,1.376968 0,0.678787 0.213333,1.027877 0.213333,0.34909 0.717575,0.601211 0.523635,0.232727 1.706664,0.601211 1.861815,0.581817 2.870298,1.163635 1.027877,0.581817 1.473937,1.435149 0.465454,0.833938 0.465454,2.172118 0,1.745452 -0.484848,2.773329 -0.484847,1.027877 -1.570906,1.512725 -1.066665,0.465453 -2.928481,0.465453 z m 11.927243,0 q -1.997572,0 -3.141813,-0.79515 -1.14424,-0.814544 -1.648482,-2.540602 -0.504242,-1.745452 -0.504242,-4.71272 0,-2.947874 0.504242,-4.673932 0.504242,-1.745452 1.648482,-2.540602 1.144241,-0.79515 3.141813,-0.79515 1.396362,0 2.307876,0.387878 0.911513,0.387878 1.493331,1.279998 0.601211,0.872726 1.027877,2.404845 l -2.113936,0.736968 q -0.329697,-1.163634 -0.639999,-1.726058 -0.310303,-0.581817 -0.775757,-0.79515 -0.465453,-0.232727 -1.299392,-0.232727 -1.183028,0 -1.842421,0.54303 -0.659393,0.543029 -0.950301,1.823027 -0.271515,1.279998 -0.271515,3.587873 0,2.327269 0.271515,3.607267 0.290908,1.279998 0.950301,1.842422 0.659393,0.543029 1.842421,0.543029 0.833939,0 1.299392,-0.213333 0.465454,-0.232727 0.775757,-0.775756 0.310302,-0.562424 0.639999,-1.706664 l 2.113936,0.717574 q -0.426666,1.512725 -1.027877,2.385451 -0.581818,0.872726 -1.493331,1.260604 -0.89212,0.387878 -2.307876,0.387878 z m 11.345426,0 q -1.473937,0 -2.443632,-0.271514 -0.950302,-0.252121 -1.609695,-0.853332 -0.639999,-0.620605 -1.14424,-1.68727 l 1.726058,-1.629089 q 0.34909,1.008484 0.69818,1.493331 0.349091,0.484848 0.969696,0.698181 0.620605,0.193939 1.803633,0.193939 1.124847,0 1.706664,-0.232727 0.581818,-0.252121 0.814544,-0.814544 0.232727,-0.562423 0.232727,-1.648482 0,-0.79515 -0.25212,-1.221816 -0.252121,-0.426666 -0.833939,-0.717575 -0.581817,-0.310303 -1.861815,-0.736969 -1.764846,-0.581817 -2.715147,-1.124846 -0.930908,-0.54303 -1.357574,-1.279998 -0.426666,-0.736969 -0.426666,-1.919997 0,-1.570907 0.44606,-2.501815 0.465454,-0.950301 1.473937,-1.376967 1.027877,-0.426666 2.773329,-0.426666 1.357574,0 2.2303,0.232727 0.89212,0.232727 1.512725,0.775756 0.620605,0.523636 1.124846,1.473937 l -1.5903,1.726058 q -0.368484,-0.930907 -0.698181,-1.357573 -0.329696,-0.44606 -0.911514,-0.620606 -0.581817,-0.174545 -1.667876,-0.174545 -1.027877,0 -1.551512,0.193939 -0.504242,0.193939 -0.717575,0.678787 -0.193939,0.465454 -0.193939,1.376968 0,0.678787 0.213333,1.027877 0.213333,0.34909 0.717574,0.601211 0.523636,0.232727 1.706664,0.601211 1.861816,0.581817 2.870299,1.163635 1.027877,0.581817 1.473937,1.435149 0.465454,0.833938 0.465454,2.172118 0,1.745452 -0.484848,2.773329 -0.484848,1.027877 -1.570907,1.512725 -1.066664,0.465453 -2.92848,0.465453 z m 11.636336,0 q -1.473937,0 -2.443633,-0.271514 -0.950301,-0.252121 -1.609694,-0.853332 -0.639999,-0.620605 -1.144241,-1.68727 l 1.726058,-1.629089 q 0.34909,1.008484 0.698181,1.493331 0.34909,0.484848 0.969695,0.698181 0.620605,0.193939 1.803634,0.193939 1.124846,0 1.706664,-0.232727 0.581817,-0.252121 0.814544,-0.814544 0.232727,-0.562423 0.232727,-1.648482 0,-0.79515 -0.252121,-1.221816 -0.252121,-0.426666 -0.833938,-0.717575 -0.581817,-0.310303 -1.861815,-0.736969 -1.764846,-0.581817 -2.715148,-1.124846 -0.930907,-0.54303 -1.357573,-1.279998 -0.426666,-0.736969 -0.426666,-1.919997 0,-1.570907 0.44606,-2.501815 0.465453,-0.950301 1.473937,-1.376967 1.027877,-0.426666 2.773329,-0.426666 1.357573,0 2.230299,0.232727 0.89212,0.232727 1.512725,0.775756 0.620605,0.523636 1.124847,1.473937 l -1.590301,1.726058 q -0.368484,-0.930907 -0.69818,-1.357573 -0.329697,-0.44606 -0.911514,-0.620606 -0.581817,-0.174545 -1.667876,-0.174545 -1.027878,0 -1.551513,0.193939 -0.504242,0.193939 -0.717575,0.678787 -0.193939,0.465454 -0.193939,1.376968 0,0.678787 0.213333,1.027877 0.213333,0.34909 0.717575,0.601211 0.523635,0.232727 1.706664,0.601211 1.861815,0.581817 2.870298,1.163635 1.027877,0.581817 1.473937,1.435149 0.465454,0.833938 0.465454,2.172118 0,1.745452 -0.484848,2.773329 -0.484847,1.027877 -1.570906,1.512725 -1.066665,0.465453 -2.92848,0.465453 z"
       id="text29"
       transform="translate(0.41525383,3.7268033)"
       aria-label="SCSS" />
  </g>
</svg>
