<?xml version="1.0" encoding="UTF-8" standalone="no"?>
<svg
   height="128px"
   viewBox="0 0 128 128"
   width="128px"
   version="1.1"
   id="svg14"
   sodipodi:docname="application-javascript.svg"
   inkscape:version="1.3.2 (091e20ef0f, 2023-11-25)"
   xmlns:inkscape="http://www.inkscape.org/namespaces/inkscape"
   xmlns:sodipodi="http://sodipodi.sourceforge.net/DTD/sodipodi-0.dtd"
   xmlns="http://www.w3.org/2000/svg"
   xmlns:svg="http://www.w3.org/2000/svg">
  <defs
     id="defs14">
    <rect
       x="38.279449"
       y="52.516917"
       width="50.601504"
       height="45.632206"
       id="rect29" />
    <rect
       x="41.343358"
       y="62.302632"
       width="45.047619"
       height="36.786341"
       id="rect15" />
  </defs>
  <sodipodi:namedview
     id="namedview14"
     pagecolor="#ffffff"
     bordercolor="#000000"
     borderopacity="0.25"
     inkscape:showpageshadow="2"
     inkscape:pageopacity="0.0"
     inkscape:pagecheckerboard="0"
     inkscape:deskcolor="#d1d1d1"
     inkscape:zoom="6.234375"
     inkscape:cx="73.944862"
     inkscape:cy="64"
     inkscape:window-width="1783"
     inkscape:window-height="991"
     inkscape:window-x="26"
     inkscape:window-y="23"
     inkscape:window-maximized="0"
     inkscape:current-layer="svg14" />
  <clipPath
     id="a">
    <path
       d="m 33 46 h 61 v 61 h -61 z m 0 0"
       id="path1" />
  </clipPath>
  <clipPath
     id="b">
    <path
       d="m 66.675781 47.21875 l 26.046875 26.046875 c 1.539063 1.539063 1.539063 4.039063 0 5.578125 l -26.046875 26.046875 c -1.539062 1.539063 -4.035156 1.539063 -5.574219 0 l -26.046874 -26.046875 c -1.542969 -1.539062 -1.542969 -4.039062 0 -5.578125 l 26.046874 -26.046875 c 1.539063 -1.539062 4.035157 -1.539062 5.574219 0 z m 0 0"
       id="path2" />
  </clipPath>
  <clipPath
     id="c">
    <path
       d="m 56 60 h 38 v 47 h -38 z m 0 0"
       id="path3" />
  </clipPath>
  <clipPath
     id="d">
    <path
       d="m 66.675781 47.21875 l 26.046875 26.046875 c 1.539063 1.539063 1.539063 4.039063 0 5.578125 l -26.046875 26.046875 c -1.539062 1.539063 -4.035156 1.539063 -5.574219 0 l -26.046874 -26.046875 c -1.542969 -1.539062 -1.542969 -4.039062 0 -5.578125 l 26.046874 -26.046875 c 1.539063 -1.539062 4.035157 -1.539062 5.574219 0 z m 0 0"
       id="path4" />
  </clipPath>
  <clipPath
     id="e">
    <path
       d="m 33 46 h 30 v 45 h -30 z m 0 0"
       id="path5" />
  </clipPath>
  <clipPath
     id="f">
    <path
       d="m 66.675781 47.21875 l 26.046875 26.046875 c 1.539063 1.539063 1.539063 4.039063 0 5.578125 l -26.046875 26.046875 c -1.539062 1.539063 -4.035156 1.539063 -5.574219 0 l -26.046874 -26.046875 c -1.542969 -1.539062 -1.542969 -4.039062 0 -5.578125 l 26.046874 -26.046875 c 1.539063 -1.539062 4.035157 -1.539062 5.574219 0 z m 0 0"
       id="path6" />
  </clipPath>
  <path
     d="m 28 8 h 50 l 30.042969 29.917969 v 74.058593 c 0 4.433594 -3.609375 8.023438 -8.042969 8.023438 h -72 c -4.433594 0 -8 -3.566406 -8 -8 v -96 c 0 -4.433594 3.566406 -8 8 -8 z m 0 0"
     fill="#f6f5f4"
     id="path7" />
  <path
     d="m 78 8 v 22 c 0 4.433594 3.609375 7.921875 8.042969 7.921875 l 22 -0.003906 z m 0 0"
     fill="#deddda"
     id="path8" />
  <g
     id="g30"
     transform="translate(0.13281263)">
    <rect
       style="fill:#fcdc00;fill-opacity:1;stroke-width:0.691"
       id="rect14"
       width="61"
       height="61"
       x="33.388672"
       y="45.554688"
       rx="10"
       ry="10" />
    <text
       xml:space="preserve"
       id="text29"
       style="font-style:normal;font-variant:normal;font-weight:normal;font-stretch:normal;font-size:29.3333px;font-family:'Victor Mono';-inkscape-font-specification:'Victor Mono';text-align:center;letter-spacing:0px;white-space:pre;shape-inside:url(#rect29);display:inline;fill:#000000;fill-opacity:1;fill-rule:nonzero;stroke:none;stroke-width:0.691;stroke-opacity:1"
       transform="translate(0.66858558,6.6358942)"><tspan
         x="47.580112"
         y="80.085448"
         id="tspan2"><tspan
           style="font-weight:bold"
           id="tspan1">JS</tspan></tspan></text>
  </g>
</svg>
