<?xml version="1.0" encoding="UTF-8" standalone="no"?>
<svg
   height="128px"
   viewBox="0 0 128 128"
   width="128px"
   version="1.1"
   id="svg12"
   sodipodi:docname="text-markdown.svg"
   inkscape:version="1.3.2 (091e20ef0f, 2023-11-25)"
   xmlns:inkscape="http://www.inkscape.org/namespaces/inkscape"
   xmlns:sodipodi="http://sodipodi.sourceforge.net/DTD/sodipodi-0.dtd"
   xmlns="http://www.w3.org/2000/svg"
   xmlns:svg="http://www.w3.org/2000/svg">
  <defs
     id="defs12">
    <rect
       x="43.349624"
       y="56"
       width="40.83208"
       height="32"
       id="rect13" />
    <rect
       x="43.349625"
       y="56"
       width="40.832081"
       height="32"
       id="rect13-5" />
  </defs>
  <sodipodi:namedview
     id="namedview12"
     pagecolor="#ffffff"
     bordercolor="#000000"
     borderopacity="0.25"
     inkscape:showpageshadow="2"
     inkscape:pageopacity="0.0"
     inkscape:pagecheckerboard="0"
     inkscape:deskcolor="#d1d1d1"
     inkscape:zoom="6.234375"
     inkscape:cx="36.411028"
     inkscape:cy="56.781955"
     inkscape:window-width="1920"
     inkscape:window-height="1011"
     inkscape:window-x="0"
     inkscape:window-y="0"
     inkscape:window-maximized="1"
     inkscape:current-layer="svg12" />
  <path
     d="m 28 8 h 50 l 30.042969 29.917969 v 74.058593 c 0 4.433594 -3.609375 8.023438 -8.042969 8.023438 h -72 c -4.433594 0 -8 -3.566406 -8 -8 v -96 c 0 -4.433594 3.566406 -8 8 -8 z m 0 0"
     fill="#f6f5f4"
     id="path1" />
  <g
     fill="#deddda"
     id="g12">
    <path
       d="m 78 8 v 22 c 0 4.433594 3.609375 7.921875 8.042969 7.921875 l 22 -0.003906 z m 0 0"
       id="path2" />
    <path
       d="m 34 100 h 60 c 1.105469 0 2 0.894531 2 2 s -0.894531 2 -2 2 h -60 c -1.105469 0 -2 -0.894531 -2 -2 s 0.894531 -2 2 -2 z m 0 0"
       id="path3" />
    <path
       d="m 34 92 h 60 c 1.105469 0 2 0.894531 2 2 s -0.894531 2 -2 2 h -60 c -1.105469 0 -2 -0.894531 -2 -2 s 0.894531 -2 2 -2 z m 0 0"
       id="path4" />
    <path
       d="m 34 84 h 60 c 1.105469 0 2 0.894531 2 2 s -0.894531 2 -2 2 h -60 c -1.105469 0 -2 -0.894531 -2 -2 s 0.894531 -2 2 -2 z m 0 0"
       id="path5" />
    <path
       d="m 34 76 h 60 c 1.105469 0 2 0.894531 2 2 s -0.894531 2 -2 2 h -60 c -1.105469 0 -2 -0.894531 -2 -2 s 0.894531 -2 2 -2 z m 0 0"
       id="path6" />
    <path
       d="m 34 68 h 60 c 1.105469 0 2 0.894531 2 2 s -0.894531 2 -2 2 h -60 c -1.105469 0 -2 -0.894531 -2 -2 s 0.894531 -2 2 -2 z m 0 0"
       id="path7" />
    <path
       d="m 34 60 h 60 c 1.105469 0 2 0.894531 2 2 s -0.894531 2 -2 2 h -60 c -1.105469 0 -2 -0.894531 -2 -2 s 0.894531 -2 2 -2 z m 0 0"
       id="path8" />
    <path
       d="m 34 52 h 60 c 1.105469 0 2 0.894531 2 2 s -0.894531 2 -2 2 h -60 c -1.105469 0 -2 -0.894531 -2 -2 s 0.894531 -2 2 -2 z m 0 0"
       id="path9" />
    <path
       d="m 34 44 h 36 c 1.105469 0 2 0.59375 2 1.324219 v 1.351562 c 0 0.730469 -0.894531 1.324219 -2 1.324219 h -36 c -1.105469 0 -2 -0.59375 -2 -1.324219 v -1.351562 c 0 -0.730469 0.894531 -1.324219 2 -1.324219 z m 0 0"
       id="path10" />
    <path
       d="m 34 36 h 36 c 1.105469 0 2 0.59375 2 1.324219 v 1.351562 c 0 0.730469 -0.894531 1.324219 -2 1.324219 h -36 c -1.105469 0 -2 -0.59375 -2 -1.324219 v -1.351562 c 0 -0.730469 0.894531 -1.324219 2 -1.324219 z m 0 0"
       id="path11" />
    <path
       d="m 34 28 h 36 c 1.105469 0 2 0.59375 2 1.324219 v 1.351562 c 0 0.730469 -0.894531 1.324219 -2 1.324219 h -36 c -1.105469 0 -2 -0.59375 -2 -1.324219 v -1.351562 c 0 -0.730469 0.894531 -1.324219 2 -1.324219 z m 0 0"
       id="path12" />
  </g>
  <rect
     style="fill:#000000;fill-opacity:1;stroke-width:0.691455"
     id="rect12"
     width="49.382206"
     height="40"
     x="39.308899"
     y="52"
     rx="2.4691103"
     ry="3" />
  <g
     id="g15"
     transform="translate(-1.5161932,2.0000001)">
    <path
       style="font-weight:bold;font-size:21.3333px;font-family:'PT Sans';-inkscape-font-specification:'PT Sans';text-align:center;letter-spacing:0px;text-anchor:middle;white-space:pre;fill:#ffffff;stroke-width:0.806916"
       d="m 61.568124,68 -0.823535,1.080953 -4.02463,5.996776 H 55.531477 L 51.29076,69.057978 50.541502,68 c -0.08727,3.33124 -0.03406,6.694547 -0.03406,10.041654 H 46.996021 V 61.958346 h 3.376368 l 5.051045,7.352369 0.919243,1.450247 0.890486,-1.496199 4.780936,-7.306417 h 3.349357 V 78.041654 H 61.662957 C 61.634205,74.693462 61.655529,71.343936 61.568124,68 Z"
       id="text12"
       aria-label="M"
       sodipodi:nodetypes="cccccccccccccccccc" />
    <path
       style="font-size:21.3333px;font-family:'Arial Black';-inkscape-font-specification:'Arial Black, ';text-align:center;letter-spacing:0px;white-space:pre;fill:#fffbfb;fill-opacity:1;stroke:none;stroke-width:0.691;stroke-opacity:1"
       d="m 66.536454,72.330607 -2.770829,2.770829 1.406248,-13.562479 v 0 l -1.406248,13.562479 -2.770829,-2.770829 2.770829,2.770829 z m -8.027388,-4.503131 h 2.843745 l -0.0351,-7.330184 h 4.895826 l 0.0351,7.330184 h 2.843745 L 63.765625,76.5806 Z"
       id="text12-6"
       transform="matrix(1.575396,0,0,1,-24.811493,1.4610538)"
       aria-label="⇩"
       sodipodi:nodetypes="cccccccccccccccc" />
  </g>
</svg>
